<?xml version="1.0" encoding="UTF-8" standalone="no"?>
<!-- Created with Inkscape (http://www.inkscape.org/) -->

<svg
   version="1.1"
   id="svg2"
   width="309"
   height="306"
   viewBox="0 0 309 306"
   sodipodi:docname="eg-logo.svg"
   inkscape:version="1.1.2 (0a00cf5339, 2022-02-04)"
   xmlns:inkscape="http://www.inkscape.org/namespaces/inkscape"
   xmlns:sodipodi="http://sodipodi.sourceforge.net/DTD/sodipodi-0.dtd"
   xmlns="http://www.w3.org/2000/svg"
   xmlns:svg="http://www.w3.org/2000/svg">
  <defs
     id="defs6" />
  <sodipodi:namedview
     id="namedview4"
     pagecolor="#ffffff"
     bordercolor="#666666"
     borderopacity="1.0"
     inkscape:pageshadow="2"
     inkscape:pageopacity="0.0"
     inkscape:pagecheckerboard="0"
     showgrid="false"
     inkscape:zoom="1.9836601"
     inkscape:cx="154.2603"
     inkscape:cy="153"
     inkscape:window-width="1440"
     inkscape:window-height="832"
     inkscape:window-x="0"
     inkscape:window-y="0"
     inkscape:window-maximized="1"
     inkscape:current-layer="g8" />
  <g
     inkscape:groupmode="layer"
     inkscape:label="Image"
     id="g8">
    <path
       style="fill:#000000;stroke-width:0.903009"
       d="m 149.23364,296.23496 c -30.03106,-6.15473 -36.1646,-7.96903 -51.008533,-15.08832 l -14.37081,-6.89236 -19.02346,-19.38489 c -31.1454,-31.73715 -35.41123,-37.65119 -42.24099,-58.56187 -6.017749,-18.42455 -6.645151,-23.52322 -6.049093,-49.15883 0.672111,-28.90654 1.869971,-35.03079 10.313803,-52.731069 3.825,-8.018108 4.89877,-9.368792 16.8695,-21.21995 15.7004,-15.543568 29.12138,-25.50895 40.17059,-29.827571 4.34206,-1.697111 12.57615,-5.681886 18.297973,-8.855056 11.27825,-6.25462 20.61346,-9.759975 30.48312,-11.446354 9.43644,-1.61236 30.58238,0.170185 39.37762,3.319427 3.61951,1.296007 9.63406,3.372151 13.36568,4.613652 9.91071,3.29727 34.74176,15.791912 44.18696,22.234261 16.25908,11.089946 26.88979,21.583438 41.10196,40.571421 3.94969,5.27694 15.12487,26.843229 18.39421,35.497899 4.85138,12.84262 8.00128,43.41125 5.86812,56.94781 -1.00836,6.39876 -8.02389,25.24051 -10.44367,28.04877 -0.64077,0.74365 -3.23231,5.61113 -5.75895,10.81663 -2.70855,5.58025 -6.86603,12.23906 -10.13018,16.22495 -3.04495,3.71822 -7.49788,9.59976 -9.89541,13.07009 -2.39753,3.47034 -9.19002,11.00975 -15.09442,16.75425 -10.85022,10.55637 -18.80924,16.14433 -22.94785,16.11145 l -2.26159,-0.0179 2.7754,-2.45239 c 1.52647,-1.34881 6.11245,-5.04108 10.19108,-8.20503 8.92329,-6.92215 12.98957,-11.53669 26.4715,-30.04067 16.59766,-22.78035 22.90558,-34.92991 28.45657,-54.80966 4.9894,-17.86858 3.74125,-45.19642 -2.9425,-64.42493 -4.67948,-13.46249 -11.27336,-26.43488 -17.23849,-33.913979 -11.50183,-14.421042 -33.32162,-34.267542 -45.62852,-41.502062 -3.63451,-2.136525 -8.03301,-4.838547 -9.77443,-6.004494 -4.94783,-3.312751 -19.58463,-10.063827 -27.96928,-12.900543 -16.28211,-5.508611 -33.61177,-6.880998 -44.53239,-3.526649 -9.39953,2.887132 -20.89006,5.432092 -24.55648,5.438845 -4.2551,0.0078 -7.86878,1.831082 -18.457953,9.312757 -4.57425,3.2319 -11.08763,7.519929 -14.47416,9.528954 -5.96952,3.541355 -23.81131,17.177716 -30.02048,22.94445 -12.31991,11.442051 -23.06521,30.406451 -29.18779,51.513581 l -2.614663,9.01386 1.391523,18.02772 c 1.73657,22.49796 2.41997,26.75041 6.40324,39.8444 5.80953,19.09732 8.34092,22.97178 29.91529,45.78726 32.51795,34.3886 38.19781,37.55652 83.247873,46.43101 l 18.82159,3.70771 28.28711,-2.03029 c 21.56285,-1.54766 28.53817,-1.78015 29.34323,-0.97798 1.45581,1.45057 -3.51301,3.439 -10.57216,4.23076 -2.98529,0.33484 -11.47163,1.59849 -18.85852,2.80811 -18.73324,3.0676 -27.15662,3.32978 -37.68117,1.17282 z m -7.98271,-19.79025 c -1.31044,-0.5235 -1.98855,-1.43587 -1.79988,-2.42167 0.24245,-1.26687 1.56132,-1.68304 6.62576,-2.09077 3.47768,-0.27998 9.07088,-1.42851 12.42934,-2.5523 l 6.10629,-2.04325 -0.002,-12.77126 c -0.002,-12.85655 -1.3978,-35.66988 -2.37273,-38.7865 -0.4429,-1.41581 -1.11072,-1.58693 -4.27662,-1.09578 -6.05092,0.93873 -18.22359,4.8633 -26.94363,8.68685 -4.45456,1.95321 -8.99688,3.55752 -10.09405,3.56511 -1.09716,0.007 -2.60457,0.39787 -3.34979,0.86727 -1.18565,0.74683 -1.1432,1.24526 0.33968,3.98891 1.93244,3.57544 11.80582,13.56195 17.52486,17.72567 2.11458,1.53951 3.8447,3.16964 3.8447,3.62251 0,2.78847 -8.33185,-1.74952 -17.64039,-9.60795 -2.48774,-2.10019 -6.78822,-4.81568 -9.55661,-6.03441 -6.03648,-2.65745 -10.3243,-7.46918 -12.180613,-13.66891 -1.69554,-5.66279 -1.67799,-8.47859 0.079,-12.66848 1.330763,-3.17353 1.277333,-3.87575 -0.95152,-12.50414 -2.72282,-10.53921 -4.04426,-12.96059 -7.48118,-13.70768 -7.52019,-1.63465 -12.87961,-5.96418 -12.87961,-10.4046 0,-3.84445 2.07062,-4.10717 7.0877,-0.89927 2.40825,1.53982 5.10071,2.79967 5.98323,2.79967 1.36284,0 1.50918,-0.50678 0.9713,-3.36361 -0.94533,-5.02091 -1.78673,-6.10106 -7.06455,-9.06897 -5.01976,-2.82281 -10.59622,-8.3541 -10.59622,-10.51041 0,-2.14784 1.05239,-4.09859 2.21111,-4.09859 0.6121,0 3.38686,1.6225 6.16613,3.60555 2.77928,1.98304 5.28807,3.60554 5.57508,3.60554 0.89029,0 0.57276,-9.03758 -0.37983,-10.81112 -0.49592,-0.92332 -3.98355,-3.37387 -7.75028,-5.44568 -5.00974,-2.75551 -7.23105,-4.56607 -8.27301,-6.74323 -2.65572,-5.5491 0.65385,-8.41257 5.2598,-4.55084 3.71925,3.11831 7.87877,5.22598 8.97783,4.54917 0.48293,-0.2974 0.87807,-2.89542 0.87807,-5.77339 v -5.23265 l -4.04514,-1.5393 c -4.66022,-1.77336 -8.61976,-5.97221 -8.61976,-9.14072 0,-3.14452 1.84203,-2.6993 5.88013,1.42124 3.95867,4.03948 4.9755,4.41481 4.9755,1.83658 0,-5.70439 7.30886,-17.435109 9.87747,-15.853329 1.61962,0.997379 1.12385,3.919249 -1.78584,10.524899 -1.97304,4.47923 -2.68494,7.35985 -2.48775,10.06633 l 0.27624,3.79146 3.9258,-6.08436 c 2.15918,-3.34639 4.0983,-6.08435 4.309163,-6.08435 0.40002,0 0.22795,0.42722 -5.852883,14.53167 -5.70015,13.22149 -4.87844,14.44359 1.89801,2.82284 6.173923,-10.58747 9.799473,-12.85827 4.260583,-2.66853 -2.645733,4.86727 -8.088353,18.65762 -8.088353,20.49402 0,2.13287 1.98434,0.43673 6.12445,-5.23496 9.207253,-12.61333 10.813833,-12.13368 3.063383,0.91459 -3.036163,5.11153 -5.968113,10.57367 -6.515433,12.13807 -1.08761,3.10871 -0.14592,10.14908 1.39846,10.45535 0.49755,0.0987 2.12589,-2.11076 3.61854,-4.90987 2.867573,-5.37742 5.620293,-8.88221 6.976253,-8.88221 0.44863,0 -0.25713,1.7239 -1.56837,3.83089 -1.31123,2.10699 -3.62581,6.3962 -5.14351,9.53157 -2.458303,5.07855 -2.712023,6.36109 -2.324903,11.75218 0.239,3.32832 0.95877,7.02751 1.59949,8.22041 1.135753,2.11453 1.243603,2.01202 4.303193,-4.0904 3.35799,-6.69758 6.17168,-10.31554 8.02241,-10.31554 2.56067,0 2.16794,2.11573 -0.91502,4.92947 -5.06144,4.61945 -8.21014,12.22459 -8.22191,19.85864 -0.008,5.27878 0.47879,7.34061 2.98025,12.6194 3.77289,7.96186 7.70668,12.16871 11.37887,12.16871 2.79069,0 9.58941,-3.67616 22.9024,-12.38365 l 7.4223,-4.85461 -5.46405,-6.47908 c -11.73536,-13.91539 -16.19587,-22.7913 -19.4192,-38.64196 -1.77576,-8.73224 -0.62474,-21.71979 3.36925,-38.01704 l 2.64599,-10.79684 -2.17211,-2.32745 c -6.42856,-6.888289 -10.54021,-17.010944 -10.54021,-25.949356 0,-7.174486 1.2434,-9.62585 7.88924,-15.55357 6.48196,-5.781557 14.93094,-9.901288 27.84384,-13.576678 13.42873,-3.822213 23.5346,-4.451053 30.30527,-1.885752 7.44918,2.822372 15.08632,9.215975 17.70658,14.823439 2.84573,6.089987 2.76001,10.095884 -0.53341,24.928317 -1.48445,6.685481 -2.69901,13.79757 -2.69901,15.80463 0,2.00707 1.59036,9.51709 3.53413,16.68893 1.94377,7.17184 5.44306,20.54374 7.77619,29.71534 3.70218,14.55339 7.15637,25.50882 9.34131,29.62724 0.35994,0.67846 2.11754,2.07906 3.90577,3.11241 2.98871,1.72709 3.55605,1.77863 7.02423,0.63814 3.36819,-1.10761 3.93565,-1.07854 5.29008,0.27102 1.28417,1.27956 1.35197,1.94783 0.44144,4.35142 -4.27407,11.28266 -14.11572,21.84726 -25.89843,27.80094 l -8.02756,4.05624 -11.59904,0.3147 -11.59904,0.3147 -0.94562,4.64292 c -1.47897,7.2617 -2.94674,30.2366 -2.29234,35.88188 l 0.59104,5.09877 8.26404,4.36578 8.26405,4.36578 -4.95068,0.5869 c -7.61959,0.90329 -41.77511,0.75702 -44.1433,-0.18905 z m 44.03301,-63.82614 c -1.91141,-3.04966 -0.36693,-4.62634 4.53182,-4.62634 3.99594,0 4.51181,0.23152 5.02111,2.25347 0.3122,1.2394 1.04996,2.25346 1.63946,2.25346 2.24291,0 17.5985,-8.09259 21.05726,-11.09742 l 3.61854,-3.14366 -3.61854,-0.55844 c -20.72676,-3.19871 -31.62012,-8.39697 -44.75763,-21.35812 -7.9437,-7.83706 -9.8559,-11.55219 -11.13237,-21.62866 -1.90444,-15.03371 1.23139,-26.25608 10.14427,-36.3038 2.58752,-2.91697 4.37232,-5.61811 3.96623,-6.00251 -0.40609,-0.38441 -2.8239,-1.30705 -5.3729,-2.0503 -4.62657,-1.34904 -4.6376,-1.34732 -6.39448,0.99738 l -1.75991,2.34875 -2.81451,-1.99691 -2.81451,-1.9969 -5.189,3.62184 c -6.56803,4.58441 -9.30183,4.66777 -14.47805,0.44148 l -3.89521,-3.18037 -1.42838,4.7578 c -0.7856,2.61678 -2.3104,9.50392 -3.38844,15.30475 l -1.96007,10.54696 2.13549,6.49045 c 1.75538,5.33517 1.95792,6.95919 1.13789,9.12388 -0.54867,1.44839 -0.83028,3.1109 -0.62581,3.69446 2.14485,6.12118 2.23275,6.24104 3.692,5.03433 1.21045,-1.00097 1.67345,-0.85507 3.0478,0.9604 0.89129,1.17737 2.02621,3.45774 2.52203,5.06748 0.82778,2.68745 0.72182,2.97173 -1.29576,3.47629 l -2.19726,0.54949 1.89655,3.35246 c 1.04309,1.84386 2.67009,4.36652 3.61553,5.60593 1.69913,2.22743 1.73446,2.23263 3.05793,0.45069 1.31272,-1.76746 1.40026,-1.74379 4.47034,1.20883 4.31181,4.14687 6.88631,8.98114 5.30235,9.95656 -0.86685,0.53382 0.0746,1.86186 3.48756,4.91933 4.91358,4.40186 6.2979,4.61912 6.2979,0.98841 0,-3.01059 2.02558,-2.83598 7.84105,0.67591 5.97794,3.60999 6.7815,5.2363 2.58725,5.2363 -5.13054,0 -4.44025,1.54487 1.55164,3.47256 10.17849,3.27459 11.95223,3.46948 10.50083,1.15378 z m 13.31693,-6.0428 c -3.57663,-3.56378 -0.70436,-5.68456 5.3945,-3.98312 4.55416,1.2705 4.91536,1.98196 2.02899,3.99639 -2.5736,1.79614 -5.61301,1.79071 -7.42349,-0.0132 z m -20.79081,-8.56795 c -2.59813,-3.07661 -3.08771,-6.24053 -0.96565,-6.24053 0.75699,0 2.99596,1.06796 4.97549,2.37325 2.51131,1.65593 3.59914,3.01814 3.59914,4.50693 0,3.32684 -4.58485,2.94143 -7.60898,-0.63965 z m -17.99237,-7.65835 c -2.80873,-2.79864 -3.95861,-7.12768 -2.39264,-9.00778 0.9795,-1.17599 1.32116,-1.15142 2.82313,0.20296 2.05139,1.84982 4.82864,6.29806 5.67903,9.0959 0.5214,1.71549 0.27743,2.02812 -1.58277,2.02812 -1.20955,0 -3.24659,-1.04364 -4.52675,-2.3192 z m -12.96592,-16.42756 c -3.88214,-3.08716 -5.3889,-9.60421 -2.47786,-10.71727 2.9868,-1.14203 7.90926,8.79637 5.52301,11.15092 -0.8792,0.86751 -1.52448,0.77561 -3.04515,-0.43365 z m 9.87015,-2.21046 c -1.52999,-1.97022 -2.07557,-4.35846 -1.50927,-6.60667 0.73515,-2.91854 2.33851,-2.75324 4.22925,0.43605 2.1342,3.59994 2.05997,7.29735 -0.14651,7.29735 -0.93417,0 -2.09224,-0.50703 -2.57347,-1.12673 z m -7.8893,-17.10155 c -2.69248,-3.83024 -1.12683,-9.84728 1.79328,-6.89183 2.00836,2.03267 3.92528,6.32991 3.41486,7.65524 -0.73175,1.90008 -3.63498,1.47451 -5.20814,-0.76341 z m -13.10747,-0.58718 c -1.3181,-2.45403 -1.21435,-6.64129 0.21272,-8.58592 1.09901,-1.49759 1.26309,-1.50407 2.43568,-0.0963 1.88689,2.26541 1.76813,9.78708 -0.16065,10.17441 -0.83714,0.16812 -1.95663,-0.50338 -2.48775,-1.49223 z m 16.82549,-13.33397 c -1.11523,-1.11122 -0.54073,-5.23308 1.1726,-8.41293 1.76007,-3.26663 1.69448,-3.29666 3.21801,1.47308 0.8682,2.71809 -0.55781,7.54078 -2.2297,7.54078 -0.85681,0 -1.82922,-0.27042 -2.16091,-0.60093 z m -10.50311,-1.59134 c -0.76169,-0.91449 -0.91508,-2.59861 -0.47479,-5.21299 1.68914,-10.02981 4.29866,-10.19136 3.86065,-0.23901 -0.27447,6.2363 -1.32441,7.92696 -3.38586,5.452 z m -11.7594,-1.31678 c -0.65481,-1.21914 -0.508,-3.07676 0.51424,-6.50666 1.3186,-4.42426 1.52878,-4.66675 2.6824,-3.09475 0.68844,0.9381 1.49768,3.01214 1.79833,4.60898 0.97433,5.17498 -2.84601,8.99337 -4.99497,4.99243 z m 85.88851,53.14966 c 0,-1.76786 -2.83272,-3.51741 -7.42955,-4.58867 -15.88028,-3.7008 -31.39411,-14.59473 -34.63668,-24.32217 -2.06038,-6.18093 -1.35379,-7.25096 1.7968,-2.72098 7.15444,10.28677 22.13338,20.57823 31.21687,21.4479 6.91745,0.66229 5.39238,-2.48105 -2.7077,-5.58087 -9.38823,-3.59279 -17.84676,-10.06716 -20.87212,-15.97606 -1.88663,-3.68483 -2.28922,-7.08313 -0.83912,-7.08313 0.49755,0 0.90463,0.36175 0.90463,0.8039 0,2.00514 8.94098,10.46554 13.09887,12.39479 4.2539,1.97381 10.42165,2.87325 10.42165,1.5198 0,-1.22648 -3.03903,-3.902 -4.43723,-3.90648 -2.39063,-0.007 -8.0058,-3.85243 -10.45269,-7.15709 -1.70062,-2.29678 -2.28432,-4.17148 -2.24495,-7.21024 0.0458,-3.53644 0.20277,-3.87074 1.13079,-2.40829 3.80843,6.00169 10.56018,10.85667 12.45328,8.95477 0.56342,-0.56603 -2.38628,-13.07664 -4.74685,-20.13292 -0.16453,-0.49181 -2.53569,0.93386 -5.26927,3.16814 -5.2292,4.27409 -15.3112,9.60632 -21.03538,11.12531 -2.77694,0.7369 -3.39238,0.66286 -3.39238,-0.40815 0,-4.91637 6.63765,-12.21653 17.47093,-19.21471 9.71124,-6.27336 9.06753,-4.8046 6.08783,-13.89056 -1.43719,-4.38244 -2.81356,-8.16783 -3.05859,-8.41197 -0.80699,-0.80409 -16.03943,12.90581 -19.63153,17.66927 -4.28139,5.67753 -4.93949,8.50814 -4.93949,21.24542 0,9.78647 0.0455,10.00002 3.5004,16.44265 7.89804,14.72792 28.99571,28.86733 43.31446,29.02886 2.36336,0.0267 4.29702,-0.32818 4.29702,-0.78852 z m -68.88658,-79.76783 c 1.36936,-0.70558 4.25297,-3.18887 6.40802,-5.51843 l 3.91826,-4.23555 -0.52323,-5.583039 c -0.59137,-6.31017 -3.40353,-14.526125 -6.17261,-18.033799 -2.55077,-3.231118 -8.14785,-5.908669 -12.35135,-5.908669 -4.85345,0 -11.49378,4.450388 -12.87859,8.631306 -1.69666,5.122469 1.35695,17.191222 5.74681,22.713041 1.08084,1.35953 2.39323,3.24298 2.91643,4.18544 1.10754,1.99508 6.42157,5.03257 8.80437,5.03257 0.90318,0 2.76253,-0.57729 4.13189,-1.28287 z m -9.62056,-10.94055 c -6.31432,-4.406849 -6.1843,-17.522307 0.17372,-17.522307 2.82596,0 7.96479,3.586061 9.40002,6.559672 0.86778,1.797936 0.93839,3.292926 0.26953,5.706626 -1.72114,6.211059 -5.54737,8.254149 -9.84327,5.256009 z m 5.18371,-6.197369 c 1.60269,-1.92419 -0.39297,-5.208168 -2.94405,-4.84459 -3.34889,0.47728 -3.22073,6.13905 0.13897,6.13905 0.9498,0 2.21208,-0.5825 2.80508,-1.29446 z m 42.59396,8.929389 c 3.10808,-2.967029 5.17302,-8.574839 5.92732,-16.097006 0.65483,-6.530176 -1.76425,-14.157526 -5.74967,-18.128623 -2.21239,-2.204444 -2.94799,-2.40308 -7.6454,-2.06452 -6.19163,0.446255 -10.71497,3.554449 -14.27162,9.806698 -1.98763,3.494061 -2.24761,4.967871 -2.14621,12.166484 0.0634,4.504958 0.60388,9.100318 1.20093,10.211918 0.59706,1.1116 3.59829,3.228149 6.66939,4.703449 6.99841,3.3619 12.06502,3.17258 16.01526,-0.5984 z m -11.78838,-7.354269 c -3.33474,-1.26782 -4.52318,-3.2847 -4.52318,-7.676209 0,-4.795239 1.79203,-9.185414 4.11139,-10.07224 4.54289,-1.737011 9.72517,0.391623 10.73746,4.410441 0.70789,2.810294 -0.72519,8.294108 -2.86795,10.974588 -1.67632,2.09697 -5.21165,3.21735 -7.45772,2.36342 z m 5.46564,-7.562178 c 1.36894,-2.548693 0.40742,-4.627724 -1.97683,-4.274368 -2.37929,0.352621 -3.97677,2.679005 -3.20885,4.672977 0.80054,2.078699 3.98662,1.833799 5.18568,-0.398609 z m 15.00651,-15.478471 c -0.30001,-1.115465 -0.55104,-2.668417 -0.55783,-3.451005 -0.0267,-3.074428 -5.45164,-9.564564 -10.17389,-12.171526 -9.15603,-5.054677 -23.76184,-3.047331 -40.56192,5.574615 -4.2643,2.188482 -8.5387,4.611642 -9.49867,5.384799 -1.64811,1.32741 -1.59414,1.365785 0.96853,0.68868 6.48059,-1.712286 11.83067,-0.745335 18.2316,3.2951 1.76372,1.113307 2.49173,0.877986 7.6894,-2.485521 13.68978,-8.858904 20.95294,-10.397481 26.43651,-5.60013 1.71483,1.500226 3.8662,4.540882 4.78082,6.757016 1.71526,4.156061 3.65285,5.604842 2.68545,2.007972 z"
       id="path184"
       inkscape:export-filename="/home/nadushka/Pictures/eurogym/logo.png"
       inkscape:export-xdpi="96"
       inkscape:export-ydpi="96" />
  </g>
</svg>
